<mxfile host="Electron" modified="2024-11-26T17:51:53.732Z" agent="Mozilla/5.0 (Windows NT 10.0; Win64; x64) AppleWebKit/537.36 (KHTML, like Gecko) draw.io/21.2.8 Chrome/112.0.5615.165 Electron/24.2.0 Safari/537.36" etag="XiyhpoV74BYIR4gFU973" version="21.2.8" type="device">
  <diagram name="Seite-1" id="D5tcKsk5kdQru-Kcxm5j">
    <mxGraphModel dx="2885" dy="2357" grid="1" gridSize="10" guides="1" tooltips="1" connect="1" arrows="1" fold="1" page="1" pageScale="1" pageWidth="827" pageHeight="1169" math="0" shadow="0">
      <root>
        <mxCell id="0" />
        <mxCell id="1" parent="0" />
        <mxCell id="vJlaEH_wGCGbr9jfmiXO-9" style="edgeStyle=orthogonalEdgeStyle;rounded=0;orthogonalLoop=1;jettySize=auto;html=1;exitX=0.25;exitY=1;exitDx=0;exitDy=0;entryX=0.25;entryY=0;entryDx=0;entryDy=0;endArrow=block;endFill=0;" parent="1" source="vJlaEH_wGCGbr9jfmiXO-1" target="vJlaEH_wGCGbr9jfmiXO-6" edge="1">
          <mxGeometry relative="1" as="geometry">
            <Array as="points">
              <mxPoint x="145" y="290" />
              <mxPoint x="270" y="290" />
            </Array>
          </mxGeometry>
        </mxCell>
        <mxCell id="vJlaEH_wGCGbr9jfmiXO-29" style="edgeStyle=orthogonalEdgeStyle;rounded=0;orthogonalLoop=1;jettySize=auto;html=1;entryX=0.75;entryY=1;entryDx=0;entryDy=0;" parent="1" source="vJlaEH_wGCGbr9jfmiXO-1" target="vJlaEH_wGCGbr9jfmiXO-17" edge="1">
          <mxGeometry relative="1" as="geometry" />
        </mxCell>
        <mxCell id="vJlaEH_wGCGbr9jfmiXO-1" value="LocalTodoDataService" style="rounded=0;whiteSpace=wrap;html=1;" parent="1" vertex="1">
          <mxGeometry x="110" y="40" width="140" height="60" as="geometry" />
        </mxCell>
        <mxCell id="vJlaEH_wGCGbr9jfmiXO-30" style="edgeStyle=orthogonalEdgeStyle;rounded=0;orthogonalLoop=1;jettySize=auto;html=1;exitX=0.5;exitY=0;exitDx=0;exitDy=0;entryX=1;entryY=0.5;entryDx=0;entryDy=0;" parent="1" source="vJlaEH_wGCGbr9jfmiXO-2" target="vJlaEH_wGCGbr9jfmiXO-18" edge="1">
          <mxGeometry relative="1" as="geometry" />
        </mxCell>
        <mxCell id="vJlaEH_wGCGbr9jfmiXO-2" value="RestTodoDataService" style="rounded=0;whiteSpace=wrap;html=1;" parent="1" vertex="1">
          <mxGeometry x="300" y="40" width="140" height="60" as="geometry" />
        </mxCell>
        <mxCell id="vJlaEH_wGCGbr9jfmiXO-4" style="edgeStyle=orthogonalEdgeStyle;rounded=0;orthogonalLoop=1;jettySize=auto;html=1;exitX=0.5;exitY=0;exitDx=0;exitDy=0;entryX=0.458;entryY=1;entryDx=0;entryDy=0;entryPerimeter=0;" parent="1" source="vJlaEH_wGCGbr9jfmiXO-3" target="vJlaEH_wGCGbr9jfmiXO-2" edge="1">
          <mxGeometry relative="1" as="geometry" />
        </mxCell>
        <mxCell id="vJlaEH_wGCGbr9jfmiXO-5" style="edgeStyle=orthogonalEdgeStyle;rounded=0;orthogonalLoop=1;jettySize=auto;html=1;exitX=0.25;exitY=0;exitDx=0;exitDy=0;entryX=0.5;entryY=1;entryDx=0;entryDy=0;" parent="1" source="vJlaEH_wGCGbr9jfmiXO-3" target="vJlaEH_wGCGbr9jfmiXO-1" edge="1">
          <mxGeometry relative="1" as="geometry" />
        </mxCell>
        <mxCell id="vJlaEH_wGCGbr9jfmiXO-8" style="edgeStyle=orthogonalEdgeStyle;rounded=0;orthogonalLoop=1;jettySize=auto;html=1;exitX=0.5;exitY=1;exitDx=0;exitDy=0;entryX=0.75;entryY=0;entryDx=0;entryDy=0;endArrow=block;endFill=0;" parent="1" source="vJlaEH_wGCGbr9jfmiXO-3" target="vJlaEH_wGCGbr9jfmiXO-6" edge="1">
          <mxGeometry relative="1" as="geometry" />
        </mxCell>
        <mxCell id="vJlaEH_wGCGbr9jfmiXO-3" value="DistributedTodoDataService" style="rounded=0;whiteSpace=wrap;html=1;" parent="1" vertex="1">
          <mxGeometry x="280" y="170" width="170" height="60" as="geometry" />
        </mxCell>
        <mxCell id="vJlaEH_wGCGbr9jfmiXO-6" value="ITodoDataService" style="rounded=0;whiteSpace=wrap;html=1;dashed=1;" parent="1" vertex="1">
          <mxGeometry x="240" y="350" width="120" height="60" as="geometry" />
        </mxCell>
        <mxCell id="vJlaEH_wGCGbr9jfmiXO-31" style="edgeStyle=orthogonalEdgeStyle;rounded=0;orthogonalLoop=1;jettySize=auto;html=1;exitX=0.5;exitY=0;exitDx=0;exitDy=0;entryX=0.5;entryY=1;entryDx=0;entryDy=0;endArrow=diamond;endFill=0;" parent="1" source="vJlaEH_wGCGbr9jfmiXO-11" target="vJlaEH_wGCGbr9jfmiXO-6" edge="1">
          <mxGeometry relative="1" as="geometry" />
        </mxCell>
        <mxCell id="vJlaEH_wGCGbr9jfmiXO-36" value="+ ITodoDataService dataService&lt;br&gt;(Erhält Instanz über TodoDataServiceFactory)" style="edgeLabel;html=1;align=center;verticalAlign=middle;resizable=0;points=[];" parent="vJlaEH_wGCGbr9jfmiXO-31" vertex="1" connectable="0">
          <mxGeometry x="-0.1762" y="3" relative="1" as="geometry">
            <mxPoint x="3" y="19" as="offset" />
          </mxGeometry>
        </mxCell>
        <mxCell id="vJlaEH_wGCGbr9jfmiXO-11" value="DailyDoneApplication" style="swimlane;fontStyle=1;align=center;verticalAlign=middle;childLayout=stackLayout;horizontal=1;startSize=29;horizontalStack=0;resizeParent=1;resizeParentMax=0;resizeLast=0;collapsible=0;marginBottom=0;html=1;whiteSpace=wrap;" parent="1" vertex="1">
          <mxGeometry x="165" y="530" width="270" height="160" as="geometry" />
        </mxCell>
        <mxCell id="vJlaEH_wGCGbr9jfmiXO-13" value="+ MutableLiveData isWebBackendAvailable" style="text;html=1;strokeColor=none;fillColor=none;align=left;verticalAlign=middle;spacingLeft=4;spacingRight=4;overflow=hidden;rotatable=0;points=[[0,0.5],[1,0.5]];portConstraint=eastwest;whiteSpace=wrap;" parent="vJlaEH_wGCGbr9jfmiXO-11" vertex="1">
          <mxGeometry y="29" width="270" height="131" as="geometry" />
        </mxCell>
        <mxCell id="vJlaEH_wGCGbr9jfmiXO-17" value="TodoDatabase" style="rounded=0;whiteSpace=wrap;html=1;" parent="1" vertex="1">
          <mxGeometry x="-345" y="-30" width="120" height="60" as="geometry" />
        </mxCell>
        <mxCell id="vJlaEH_wGCGbr9jfmiXO-18" value="TodoRestOperations" style="rounded=0;whiteSpace=wrap;html=1;" parent="1" vertex="1">
          <mxGeometry x="-155" y="-30" width="120" height="60" as="geometry" />
        </mxCell>
        <mxCell id="vJlaEH_wGCGbr9jfmiXO-24" style="edgeStyle=orthogonalEdgeStyle;rounded=0;orthogonalLoop=1;jettySize=auto;html=1;exitX=0.5;exitY=1;exitDx=0;exitDy=0;exitPerimeter=0;endArrow=none;endFill=0;dashed=1;" parent="1" source="vJlaEH_wGCGbr9jfmiXO-22" target="vJlaEH_wGCGbr9jfmiXO-17" edge="1">
          <mxGeometry relative="1" as="geometry" />
        </mxCell>
        <mxCell id="vJlaEH_wGCGbr9jfmiXO-22" value="Durch Room" style="shape=note2;boundedLbl=1;whiteSpace=wrap;html=1;size=25;verticalAlign=top;align=center;" parent="1" vertex="1">
          <mxGeometry x="-350" y="-150" width="130" height="60" as="geometry" />
        </mxCell>
        <mxCell id="vJlaEH_wGCGbr9jfmiXO-25" style="edgeStyle=orthogonalEdgeStyle;rounded=0;orthogonalLoop=1;jettySize=auto;html=1;exitX=0.5;exitY=1;exitDx=0;exitDy=0;exitPerimeter=0;dashed=1;endArrow=none;endFill=0;" parent="1" source="vJlaEH_wGCGbr9jfmiXO-23" target="vJlaEH_wGCGbr9jfmiXO-18" edge="1">
          <mxGeometry relative="1" as="geometry" />
        </mxCell>
        <mxCell id="vJlaEH_wGCGbr9jfmiXO-23" value="Durch Retrofit" style="shape=note2;boundedLbl=1;whiteSpace=wrap;html=1;size=25;verticalAlign=top;align=center;" parent="1" vertex="1">
          <mxGeometry x="-160" y="-270" width="130" height="60" as="geometry" />
        </mxCell>
        <mxCell id="vJlaEH_wGCGbr9jfmiXO-27" style="edgeStyle=orthogonalEdgeStyle;rounded=0;orthogonalLoop=1;jettySize=auto;html=1;exitX=0;exitY=0.5;exitDx=0;exitDy=0;entryX=0.5;entryY=1;entryDx=0;entryDy=0;endArrow=diamondThin;endFill=0;" parent="1" source="vJlaEH_wGCGbr9jfmiXO-13" target="vJlaEH_wGCGbr9jfmiXO-17" edge="1">
          <mxGeometry relative="1" as="geometry" />
        </mxCell>
        <mxCell id="F736gAGDeXjRzTS7AwSB-1" value="+ TodoDatabase todoDataBase" style="edgeLabel;html=1;align=center;verticalAlign=middle;resizable=0;points=[];" vertex="1" connectable="0" parent="vJlaEH_wGCGbr9jfmiXO-27">
          <mxGeometry x="-0.6396" relative="1" as="geometry">
            <mxPoint as="offset" />
          </mxGeometry>
        </mxCell>
        <mxCell id="vJlaEH_wGCGbr9jfmiXO-28" style="edgeStyle=orthogonalEdgeStyle;rounded=0;orthogonalLoop=1;jettySize=auto;html=1;exitX=-0.002;exitY=0.32;exitDx=0;exitDy=0;entryX=0.5;entryY=1;entryDx=0;entryDy=0;endArrow=diamond;endFill=0;exitPerimeter=0;" parent="1" source="vJlaEH_wGCGbr9jfmiXO-13" target="vJlaEH_wGCGbr9jfmiXO-18" edge="1">
          <mxGeometry relative="1" as="geometry" />
        </mxCell>
        <mxCell id="F736gAGDeXjRzTS7AwSB-3" value="+ TodoRestOperations todoRestOperations" style="edgeLabel;html=1;align=center;verticalAlign=middle;resizable=0;points=[];" vertex="1" connectable="0" parent="vJlaEH_wGCGbr9jfmiXO-28">
          <mxGeometry x="-0.6189" y="1" relative="1" as="geometry">
            <mxPoint x="25" as="offset" />
          </mxGeometry>
        </mxCell>
        <mxCell id="vJlaEH_wGCGbr9jfmiXO-34" style="edgeStyle=orthogonalEdgeStyle;rounded=0;orthogonalLoop=1;jettySize=auto;html=1;exitX=0.5;exitY=0;exitDx=0;exitDy=0;entryX=1;entryY=0.5;entryDx=0;entryDy=0;" parent="1" source="vJlaEH_wGCGbr9jfmiXO-32" target="vJlaEH_wGCGbr9jfmiXO-3" edge="1">
          <mxGeometry relative="1" as="geometry" />
        </mxCell>
        <mxCell id="vJlaEH_wGCGbr9jfmiXO-35" style="edgeStyle=orthogonalEdgeStyle;rounded=0;orthogonalLoop=1;jettySize=auto;html=1;exitX=0.25;exitY=0;exitDx=0;exitDy=0;entryX=0.062;entryY=1.033;entryDx=0;entryDy=0;entryPerimeter=0;" parent="1" source="vJlaEH_wGCGbr9jfmiXO-32" target="vJlaEH_wGCGbr9jfmiXO-1" edge="1">
          <mxGeometry relative="1" as="geometry">
            <Array as="points">
              <mxPoint x="605" y="460" />
              <mxPoint x="119" y="460" />
            </Array>
          </mxGeometry>
        </mxCell>
        <mxCell id="vJlaEH_wGCGbr9jfmiXO-32" value="TodoDataServiceFactory" style="rounded=0;whiteSpace=wrap;html=1;" parent="1" vertex="1">
          <mxGeometry x="560" y="585" width="180" height="60" as="geometry" />
        </mxCell>
        <mxCell id="vJlaEH_wGCGbr9jfmiXO-33" style="edgeStyle=orthogonalEdgeStyle;rounded=0;orthogonalLoop=1;jettySize=auto;html=1;exitX=1;exitY=0.5;exitDx=0;exitDy=0;" parent="1" source="vJlaEH_wGCGbr9jfmiXO-13" target="vJlaEH_wGCGbr9jfmiXO-32" edge="1">
          <mxGeometry relative="1" as="geometry" />
        </mxCell>
        <mxCell id="vJlaEH_wGCGbr9jfmiXO-47" style="edgeStyle=orthogonalEdgeStyle;rounded=0;orthogonalLoop=1;jettySize=auto;html=1;exitX=0.5;exitY=0;exitDx=0;exitDy=0;entryX=0.087;entryY=1.004;entryDx=0;entryDy=0;entryPerimeter=0;" parent="1" source="vJlaEH_wGCGbr9jfmiXO-37" target="vJlaEH_wGCGbr9jfmiXO-13" edge="1">
          <mxGeometry relative="1" as="geometry" />
        </mxCell>
        <mxCell id="vJlaEH_wGCGbr9jfmiXO-51" value="isWebBackendAvailable" style="edgeLabel;html=1;align=center;verticalAlign=middle;resizable=0;points=[];" parent="vJlaEH_wGCGbr9jfmiXO-47" vertex="1" connectable="0">
          <mxGeometry x="-0.051" y="2" relative="1" as="geometry">
            <mxPoint y="-8" as="offset" />
          </mxGeometry>
        </mxCell>
        <mxCell id="vJlaEH_wGCGbr9jfmiXO-55" style="edgeStyle=orthogonalEdgeStyle;rounded=0;orthogonalLoop=1;jettySize=auto;html=1;exitX=1;exitY=0.75;exitDx=0;exitDy=0;entryX=0;entryY=0.5;entryDx=0;entryDy=0;" parent="1" source="vJlaEH_wGCGbr9jfmiXO-37" target="vJlaEH_wGCGbr9jfmiXO-38" edge="1">
          <mxGeometry relative="1" as="geometry" />
        </mxCell>
        <mxCell id="vJlaEH_wGCGbr9jfmiXO-57" style="edgeStyle=orthogonalEdgeStyle;rounded=0;orthogonalLoop=1;jettySize=auto;html=1;exitX=1;exitY=0.25;exitDx=0;exitDy=0;entryX=0;entryY=0.25;entryDx=0;entryDy=0;" parent="1" source="vJlaEH_wGCGbr9jfmiXO-37" target="vJlaEH_wGCGbr9jfmiXO-40" edge="1">
          <mxGeometry relative="1" as="geometry" />
        </mxCell>
        <mxCell id="vJlaEH_wGCGbr9jfmiXO-37" value="&amp;lt;&amp;lt; Activity &amp;gt;&amp;gt;&lt;br&gt;InitialHealthCheckActivity" style="rounded=0;whiteSpace=wrap;html=1;" parent="1" vertex="1">
          <mxGeometry x="-240" y="890" width="200" height="60" as="geometry" />
        </mxCell>
        <mxCell id="vJlaEH_wGCGbr9jfmiXO-46" style="edgeStyle=orthogonalEdgeStyle;rounded=0;orthogonalLoop=1;jettySize=auto;html=1;exitX=0.5;exitY=1;exitDx=0;exitDy=0;entryX=0.5;entryY=0;entryDx=0;entryDy=0;endArrow=diamondThin;endFill=0;" parent="1" source="vJlaEH_wGCGbr9jfmiXO-38" target="vJlaEH_wGCGbr9jfmiXO-45" edge="1">
          <mxGeometry relative="1" as="geometry" />
        </mxCell>
        <mxCell id="vJlaEH_wGCGbr9jfmiXO-56" style="edgeStyle=orthogonalEdgeStyle;rounded=0;orthogonalLoop=1;jettySize=auto;html=1;exitX=1;exitY=0.5;exitDx=0;exitDy=0;entryX=0;entryY=0.75;entryDx=0;entryDy=0;" parent="1" source="vJlaEH_wGCGbr9jfmiXO-38" target="vJlaEH_wGCGbr9jfmiXO-40" edge="1">
          <mxGeometry relative="1" as="geometry" />
        </mxCell>
        <mxCell id="vJlaEH_wGCGbr9jfmiXO-38" value="&amp;lt;&amp;lt; Activity &amp;gt;&amp;gt;&lt;br&gt;LoginActivity" style="rounded=0;whiteSpace=wrap;html=1;" parent="1" vertex="1">
          <mxGeometry x="150" y="990" width="200" height="60" as="geometry" />
        </mxCell>
        <mxCell id="vJlaEH_wGCGbr9jfmiXO-59" style="edgeStyle=orthogonalEdgeStyle;rounded=0;orthogonalLoop=1;jettySize=auto;html=1;exitX=0;exitY=0.25;exitDx=0;exitDy=0;entryX=1;entryY=0.25;entryDx=0;entryDy=0;" parent="1" source="vJlaEH_wGCGbr9jfmiXO-39" target="vJlaEH_wGCGbr9jfmiXO-40" edge="1">
          <mxGeometry relative="1" as="geometry" />
        </mxCell>
        <mxCell id="vJlaEH_wGCGbr9jfmiXO-76" style="edgeStyle=orthogonalEdgeStyle;rounded=0;orthogonalLoop=1;jettySize=auto;html=1;exitX=0.25;exitY=1;exitDx=0;exitDy=0;entryX=0.5;entryY=0;entryDx=0;entryDy=0;endArrow=diamond;endFill=0;" parent="1" source="vJlaEH_wGCGbr9jfmiXO-39" target="vJlaEH_wGCGbr9jfmiXO-75" edge="1">
          <mxGeometry relative="1" as="geometry" />
        </mxCell>
        <mxCell id="vJlaEH_wGCGbr9jfmiXO-78" style="edgeStyle=orthogonalEdgeStyle;rounded=0;orthogonalLoop=1;jettySize=auto;html=1;exitX=0.75;exitY=1;exitDx=0;exitDy=0;entryX=0.5;entryY=0;entryDx=0;entryDy=0;" parent="1" source="vJlaEH_wGCGbr9jfmiXO-39" target="vJlaEH_wGCGbr9jfmiXO-77" edge="1">
          <mxGeometry relative="1" as="geometry" />
        </mxCell>
        <mxCell id="vJlaEH_wGCGbr9jfmiXO-39" value="&amp;lt;&amp;lt; Activity &amp;gt;&amp;gt;&lt;br&gt;TodoDetailViewActivity" style="rounded=0;whiteSpace=wrap;html=1;" parent="1" vertex="1">
          <mxGeometry x="730" y="890" width="200" height="60" as="geometry" />
        </mxCell>
        <mxCell id="vJlaEH_wGCGbr9jfmiXO-58" style="edgeStyle=orthogonalEdgeStyle;rounded=0;orthogonalLoop=1;jettySize=auto;html=1;exitX=1;exitY=0.75;exitDx=0;exitDy=0;entryX=0;entryY=0.75;entryDx=0;entryDy=0;" parent="1" source="vJlaEH_wGCGbr9jfmiXO-40" target="vJlaEH_wGCGbr9jfmiXO-39" edge="1">
          <mxGeometry relative="1" as="geometry" />
        </mxCell>
        <mxCell id="vJlaEH_wGCGbr9jfmiXO-72" style="edgeStyle=orthogonalEdgeStyle;rounded=0;orthogonalLoop=1;jettySize=auto;html=1;exitX=0.75;exitY=1;exitDx=0;exitDy=0;entryX=0.5;entryY=0;entryDx=0;entryDy=0;" parent="1" source="vJlaEH_wGCGbr9jfmiXO-40" target="vJlaEH_wGCGbr9jfmiXO-68" edge="1">
          <mxGeometry relative="1" as="geometry" />
        </mxCell>
        <mxCell id="vJlaEH_wGCGbr9jfmiXO-74" style="edgeStyle=orthogonalEdgeStyle;rounded=0;orthogonalLoop=1;jettySize=auto;html=1;exitX=0.25;exitY=1;exitDx=0;exitDy=0;entryX=0.5;entryY=0;entryDx=0;entryDy=0;endArrow=diamondThin;endFill=0;" parent="1" source="vJlaEH_wGCGbr9jfmiXO-40" target="vJlaEH_wGCGbr9jfmiXO-73" edge="1">
          <mxGeometry relative="1" as="geometry" />
        </mxCell>
        <mxCell id="vJlaEH_wGCGbr9jfmiXO-40" value="&amp;lt;&amp;lt; Activity &amp;gt;&amp;gt;&lt;br&gt;TodoOverviewActivity" style="rounded=0;whiteSpace=wrap;html=1;" parent="1" vertex="1">
          <mxGeometry x="450" y="890" width="200" height="60" as="geometry" />
        </mxCell>
        <mxCell id="vJlaEH_wGCGbr9jfmiXO-42" style="edgeStyle=orthogonalEdgeStyle;rounded=0;orthogonalLoop=1;jettySize=auto;html=1;exitX=0;exitY=0;exitDx=220;exitDy=62.5;exitPerimeter=0;entryX=-0.008;entryY=0.931;entryDx=0;entryDy=0;entryPerimeter=0;endArrow=none;endFill=0;dashed=1;" parent="1" source="vJlaEH_wGCGbr9jfmiXO-41" target="vJlaEH_wGCGbr9jfmiXO-13" edge="1">
          <mxGeometry relative="1" as="geometry" />
        </mxCell>
        <mxCell id="vJlaEH_wGCGbr9jfmiXO-41" value="- Führt initialen Health Check durch&lt;br&gt;- Initialisiert die dataService Instanzvariable" style="shape=note2;boundedLbl=1;whiteSpace=wrap;html=1;size=25;verticalAlign=top;align=left;" parent="1" vertex="1">
          <mxGeometry x="-640" y="690" width="220" height="100" as="geometry" />
        </mxCell>
        <mxCell id="vJlaEH_wGCGbr9jfmiXO-53" style="edgeStyle=orthogonalEdgeStyle;rounded=0;orthogonalLoop=1;jettySize=auto;html=1;entryX=0;entryY=0.5;entryDx=0;entryDy=0;" parent="1" source="vJlaEH_wGCGbr9jfmiXO-45" target="vJlaEH_wGCGbr9jfmiXO-48" edge="1">
          <mxGeometry relative="1" as="geometry">
            <Array as="points">
              <mxPoint x="-730" y="1130" />
              <mxPoint x="-730" />
            </Array>
          </mxGeometry>
        </mxCell>
        <mxCell id="vJlaEH_wGCGbr9jfmiXO-54" value="Zugriff durch Methode authenticateUser" style="edgeLabel;html=1;align=center;verticalAlign=middle;resizable=0;points=[];" parent="vJlaEH_wGCGbr9jfmiXO-53" vertex="1" connectable="0">
          <mxGeometry x="-0.6409" y="1" relative="1" as="geometry">
            <mxPoint x="-22" y="-11" as="offset" />
          </mxGeometry>
        </mxCell>
        <mxCell id="vJlaEH_wGCGbr9jfmiXO-45" value="&amp;lt;&amp;lt; View Model &amp;gt;&amp;gt;&lt;br&gt;LoginViewModel" style="rounded=0;whiteSpace=wrap;html=1;" parent="1" vertex="1">
          <mxGeometry x="150" y="1100" width="200" height="60" as="geometry" />
        </mxCell>
        <mxCell id="vJlaEH_wGCGbr9jfmiXO-49" style="edgeStyle=orthogonalEdgeStyle;rounded=0;orthogonalLoop=1;jettySize=auto;html=1;exitX=0.5;exitY=0;exitDx=0;exitDy=0;entryX=0;entryY=0.5;entryDx=0;entryDy=0;entryPerimeter=0;endArrow=none;endFill=0;dashed=1;" parent="1" source="vJlaEH_wGCGbr9jfmiXO-48" target="vJlaEH_wGCGbr9jfmiXO-23" edge="1">
          <mxGeometry relative="1" as="geometry" />
        </mxCell>
        <mxCell id="vJlaEH_wGCGbr9jfmiXO-48" value="AuthenticationRestOperations" style="rounded=0;whiteSpace=wrap;html=1;" parent="1" vertex="1">
          <mxGeometry x="-635" y="-30" width="190" height="60" as="geometry" />
        </mxCell>
        <mxCell id="vJlaEH_wGCGbr9jfmiXO-52" style="edgeStyle=orthogonalEdgeStyle;rounded=0;orthogonalLoop=1;jettySize=auto;html=1;entryX=0.5;entryY=1;entryDx=0;entryDy=0;exitX=0.007;exitY=0.689;exitDx=0;exitDy=0;exitPerimeter=0;endArrow=diamondThin;endFill=0;" parent="1" source="vJlaEH_wGCGbr9jfmiXO-13" target="vJlaEH_wGCGbr9jfmiXO-48" edge="1">
          <mxGeometry relative="1" as="geometry" />
        </mxCell>
        <mxCell id="F736gAGDeXjRzTS7AwSB-2" value="+ AuthenticationRestOperations authenticationRestOperations" style="edgeLabel;html=1;align=center;verticalAlign=middle;resizable=0;points=[];" vertex="1" connectable="0" parent="vJlaEH_wGCGbr9jfmiXO-52">
          <mxGeometry x="-0.3986" y="-2" relative="1" as="geometry">
            <mxPoint x="186" as="offset" />
          </mxGeometry>
        </mxCell>
        <mxCell id="vJlaEH_wGCGbr9jfmiXO-68" value="&amp;lt;&amp;lt; Adapter &amp;gt;&amp;gt;&lt;br&gt;TodoAdapter" style="rounded=0;whiteSpace=wrap;html=1;" parent="1" vertex="1">
          <mxGeometry x="560" y="1090" width="160" height="60" as="geometry" />
        </mxCell>
        <mxCell id="vJlaEH_wGCGbr9jfmiXO-70" value="&lt;div style=&quot;text-align: left;&quot;&gt;&lt;span style=&quot;background-color: initial;&quot;&gt;Greift für den Debug-Button zu auf:&lt;/span&gt;&lt;/div&gt;&lt;div style=&quot;text-align: left;&quot;&gt;&lt;span style=&quot;background-color: initial;&quot;&gt;- TodoDatabase&lt;/span&gt;&lt;/div&gt;&lt;div style=&quot;text-align: left;&quot;&gt;&lt;span style=&quot;background-color: initial;&quot;&gt;- TodoRestOperations&lt;/span&gt;&lt;/div&gt;&lt;div style=&quot;text-align: left;&quot;&gt;&lt;span style=&quot;background-color: initial;&quot;&gt;- DataService&lt;/span&gt;&lt;/div&gt;" style="shape=note;whiteSpace=wrap;html=1;backgroundOutline=1;darkOpacity=0.05;" parent="1" vertex="1">
          <mxGeometry x="560" y="710" width="210" height="130" as="geometry" />
        </mxCell>
        <mxCell id="vJlaEH_wGCGbr9jfmiXO-81" style="edgeStyle=orthogonalEdgeStyle;rounded=0;orthogonalLoop=1;jettySize=auto;html=1;exitX=0.5;exitY=1;exitDx=0;exitDy=0;entryX=1;entryY=0.25;entryDx=0;entryDy=0;" parent="1" source="vJlaEH_wGCGbr9jfmiXO-73" target="vJlaEH_wGCGbr9jfmiXO-6" edge="1">
          <mxGeometry relative="1" as="geometry">
            <Array as="points">
              <mxPoint x="500" y="1350" />
              <mxPoint x="1300" y="1350" />
              <mxPoint x="1300" y="365" />
            </Array>
          </mxGeometry>
        </mxCell>
        <mxCell id="vJlaEH_wGCGbr9jfmiXO-82" value="Zugriff zum Laden aller Todos" style="edgeLabel;html=1;align=center;verticalAlign=middle;resizable=0;points=[];" parent="vJlaEH_wGCGbr9jfmiXO-81" vertex="1" connectable="0">
          <mxGeometry x="-0.7481" y="-3" relative="1" as="geometry">
            <mxPoint x="-153" y="-13" as="offset" />
          </mxGeometry>
        </mxCell>
        <mxCell id="vJlaEH_wGCGbr9jfmiXO-73" value="&amp;lt;&amp;lt; View Model &amp;gt;&amp;gt;&lt;br&gt;TodoOverviewViewModel" style="rounded=0;whiteSpace=wrap;html=1;" parent="1" vertex="1">
          <mxGeometry x="400" y="1210" width="200" height="60" as="geometry" />
        </mxCell>
        <mxCell id="vJlaEH_wGCGbr9jfmiXO-79" style="edgeStyle=orthogonalEdgeStyle;rounded=0;orthogonalLoop=1;jettySize=auto;html=1;exitX=1;exitY=0.5;exitDx=0;exitDy=0;entryX=1;entryY=0.5;entryDx=0;entryDy=0;" parent="1" source="vJlaEH_wGCGbr9jfmiXO-75" target="vJlaEH_wGCGbr9jfmiXO-6" edge="1">
          <mxGeometry relative="1" as="geometry">
            <Array as="points">
              <mxPoint x="1110" y="1240" />
              <mxPoint x="1110" y="380" />
            </Array>
          </mxGeometry>
        </mxCell>
        <mxCell id="vJlaEH_wGCGbr9jfmiXO-80" value="Zugriff zum Speichern und Löschen" style="edgeLabel;html=1;align=center;verticalAlign=middle;resizable=0;points=[];" parent="vJlaEH_wGCGbr9jfmiXO-79" vertex="1" connectable="0">
          <mxGeometry x="-0.8843" relative="1" as="geometry">
            <mxPoint x="4" y="-10" as="offset" />
          </mxGeometry>
        </mxCell>
        <mxCell id="vJlaEH_wGCGbr9jfmiXO-75" value="&amp;lt;&amp;lt; View Model &amp;gt;&amp;gt;&lt;br&gt;TodoDetailViewActivity" style="rounded=0;whiteSpace=wrap;html=1;" parent="1" vertex="1">
          <mxGeometry x="680" y="1210" width="200" height="60" as="geometry" />
        </mxCell>
        <mxCell id="vJlaEH_wGCGbr9jfmiXO-77" value="&amp;lt;&amp;lt; Adapter &amp;gt;&amp;gt;&lt;br&gt;ContactAdapter" style="rounded=0;whiteSpace=wrap;html=1;" parent="1" vertex="1">
          <mxGeometry x="840" y="1090" width="160" height="60" as="geometry" />
        </mxCell>
      </root>
    </mxGraphModel>
  </diagram>
</mxfile>
